<svg id="Layer_1" data-name="Layer 1" xmlns="http://www.w3.org/2000/svg" viewBox="0 0 1000 1000"><defs><style>.cls-1{fill:#fff;}</style></defs><path class="cls-1" d="M499.66,843.68a332.54,332.54,0,0,1-91.17-12.39,350.44,350.44,0,0,1-81.88-34.74A344.58,344.58,0,0,1,203.45,673.39a348.43,348.43,0,0,1-34.74-82.22,336.22,336.22,0,0,1-12.39-91.51q0-70.86,27.18-133.48t73.62-109.06q46.44-46.44,109.06-73.62t133.48-27.18q70.84,0,133.48,27.18t109.39,73.62q46.79,46.44,74,109.06t27.18,133.48q0,71.57-27.18,134.16t-74,109.06q-46.78,46.44-109.39,73.62T499.66,843.68Zm0-171.33q59.16,0,118.68-2.06T734.28,662q16.51-1.37,25.11-7.22t10.67-23q2.73-33,3.09-65.71t.35-66.39q0-33-.35-65.71t-3.09-65.71Q768,351,759.39,345.19T734.28,338q-56.43-6.2-115.94-8.26t-118.68-2.06q-59.19,0-118.69,2.06T264.35,338q-15.84,1.38-24.43,7.22t-10.66,23.05q-3.47,33-3.79,65.71t-.34,65.71q0,33.72.34,66.39t3.79,65.71q2.06,17.21,10.66,23T264.35,662q57.09,6.19,116.62,8.26T499.66,672.35Zm0-33a137.17,137.17,0,0,1-55.05-11,134.59,134.59,0,0,1-44-30.27,144.56,144.56,0,0,1-29.24-44.38,141.17,141.17,0,0,1,0-107.68,139.5,139.5,0,0,1,29.24-44.38,139.64,139.64,0,0,1,198.15,0A139.87,139.87,0,0,1,628,446a141.29,141.29,0,0,1,0,107.68,145,145,0,0,1-29.25,44.38,134.7,134.7,0,0,1-44,30.27A137.22,137.22,0,0,1,499.66,639.33Z"/></svg>