<svg id="Layer_1" data-name="Layer 1" xmlns="http://www.w3.org/2000/svg" viewBox="0 0 1000 1000"><defs><style>.cls-1{fill:none;stroke:#fff;stroke-linecap:round;stroke-linejoin:round;stroke-width:8px;}</style></defs><polyline class="cls-1" points="747.83 689.49 802.91 634.4 747.83 579.32"/><path class="cls-1" d="M106.06,602V544.7a32,32,0,0,1,32-32H319.75a32,32,0,0,1,32,32V726.41a32,32,0,0,1-32,32H270"/><path class="cls-1" d="M188.37,758.38H138a32,32,0,0,1-32-32V556.91"/><polyline class="cls-1" points="444.92 606.86 500 661.94 555.08 606.86"/><path class="cls-1" d="M377.17,602V544.7a32,32,0,0,1,32-32H590.86a32,32,0,0,1,32,32V726.41a32,32,0,0,1-32,32h-49.7"/><path class="cls-1" d="M459.48,758.38H409.14a32,32,0,0,1-32-32V556.91"/><polyline class="cls-1" points="555.08 393.14 500 338.06 444.92 393.14"/><path class="cls-1" d="M377.17,330.89v-57.3a32,32,0,0,1,32-32H590.86a32,32,0,0,1,32,32V455.3a32,32,0,0,1-32,32h-49.7"/><path class="cls-1" d="M459.48,487.27H409.14a32,32,0,0,1-32-32V285.8"/><polyline class="cls-1" points="260.69 579.32 205.61 634.4 260.69 689.49"/><path class="cls-1" d="M648.28,602V544.7a32,32,0,0,1,32-32H862a32,32,0,0,1,32,32V726.41a32,32,0,0,1-32,32h-49.7"/><path class="cls-1" d="M730.59,758.38H680.25a32,32,0,0,1-32-32V556.91"/></svg>