<svg id="Layer_1" data-name="Layer 1" xmlns="http://www.w3.org/2000/svg" viewBox="0 0 1000 1000"><defs><style>.cls-1{fill:#fff;}</style></defs><path class="cls-1" d="M499.79,111.76c-117.06,0-212.41,95.36-212.41,212.42C287.38,441.66,382.73,537,499.79,537s212.83-95.35,212.83-212.83C712.62,207.12,616.85,111.76,499.79,111.76ZM644.94,424.63c-46.4,5.11-96.63,6.39-145.15,6.39s-98.76-1.28-145.58-6.39c-13.2-1.27-20-4.68-21.71-18.73-2.56-26.81-2.56-54.06-2.56-81.72,0-27.25,0-54.49,2.56-81.31,1.7-14,8.51-17.45,21.71-18.73,46.82-5.1,97.05-6.38,145.58-6.38s98.75,1.28,145.15,6.38c13.62,1.28,20.43,4.69,22.14,18.73,2.12,26.82,2.12,54.06,2.12,81.31,0,27.66,0,54.91-2.12,81.73C665.37,420,658.56,423.36,644.94,424.63Z"/><path class="cls-1" d="M413.8,324.18a86,86,0,1,1,172,0c0,47.25-37.46,86.41-86,86.41S413.8,371.43,413.8,324.18Z"/><path class="cls-1" d="M815.09,777.53c-22.93,0-41.56-18.63-41.56-44.06s18.63-44.07,41.56-44.07,41.56,18.63,41.56,44.07S838,777.53,815.09,777.53m-187,0c-22.21,0-40.84-17.55-40.84-44.06,0-26.16,18.63-44.07,40.84-44.07s40.84,17.91,40.84,44.07c0,26.51-18.63,44.06-40.84,44.06m-188.81,0c-22.92,0-41.55-18.63-41.55-44.06s18.63-44.07,41.55-44.07,41.56,18.63,41.56,44.07-18.63,44.06-41.56,44.06m-255.08-.36c-22.57,0-41.56-17.91-41.56-44.06,0-26.51,19-44.07,41.56-44.07s41.2,17.56,41.2,44.07c0,26.15-18.63,44.06-41.2,44.06m630.9-129.69c-46.21,0-84.91,36.19-84.91,86s38,86,84.91,86c46.22,0,84.91-36.19,84.91-86s-38-86-84.91-86m-375.82,0c-46.21,0-84.9,36.19-84.9,86s38,86,84.9,86c46.22,0,84.91-36.19,84.91-86s-38-86-84.91-86m-203.85,2.87c-5.37,0-8.6,3.22-8.6,8.6v9.31c-9.67-11.82-27.58-20.78-45.49-20.78-43.71,0-81.33,37.26-81.33,86s35.47,82.4,80.25,82.4a60.67,60.67,0,0,0,44.43-19c-.36,34-18.28,49.44-49.09,49.44-16.48,0-31.88-5-49.8-16.48-4.65-3.23-10-2.15-12.53,2.86l-10.75,21.14c-2.51,5-1.79,9.68,3.22,12.9,22.21,14.33,48.37,21.5,70.94,21.5,59.11,0,91.71-31.89,91.71-105.33V659c0-5.38-3.22-8.6-8.59-8.6Zm397.67-2.87a64.27,64.27,0,0,0-45.14,19v-76c0-5.37-3.22-8.6-8.59-8.6H552.84c-5.37,0-8.59,3.23-8.59,8.6V808c0,5.38,3.22,8.6,8.59,8.6h24c5.37,0,8.6-3.22,8.6-8.6v-9.31c10.39,11.82,29.73,20.78,48.72,20.78,41.92,0,78.1-38,78.1-86,0-48.73-36.54-86-79.18-86m-324.94-67c-10.39-4.66-17.55,0-17.55,11.46v214.6c0,11.47,7.16,16.12,17.55,11.47l13.61-6.09c8.6-3.95,12.54-9.68,12.54-19V605.57c0-9.32-3.94-15.05-12.54-19Z"/></svg>