<svg id="Layer_1" data-name="Layer 1" xmlns="http://www.w3.org/2000/svg" viewBox="0 0 850 850"><defs><style>.cls-1{fill:#fff;}</style></defs><path class="cls-1" d="M424.6,25C204.38,25,25,204.38,25,424.6,25,645.62,204.38,825,424.6,825S825,645.62,825,424.6C825,204.38,644.82,25,424.6,25ZM697.67,613.59c-87.29,9.61-181.78,12-273.07,12s-185.79-2.4-273.87-12c-24.83-2.4-37.64-8.81-40.85-35.24-4.8-50.45-4.8-101.7-4.8-153.75,0-51.25,0-102.5,4.8-153,3.21-26.43,16-32.84,40.85-35.24,88.08-9.61,182.58-12,273.87-12s185.78,2.4,273.07,12c25.63,2.4,38.44,8.81,41.64,35.24,4,50.45,4,101.7,4,153,0,52,0,103.3-4,153.75C736.11,604.78,723.3,611.19,697.67,613.59Z"/><path class="cls-1" d="M262.84,424.6c0-88.09,70.47-161.76,161.76-161.76S586.36,336.51,586.36,424.6c0,88.89-70.47,162.56-161.76,162.56S262.84,513.49,262.84,424.6Z"/></svg>